<?xml version="1.0" encoding="UTF-8"?>
<svg xmlns="http://www.w3.org/2000/svg" xmlns:xlink="http://www.w3.org/1999/xlink" width="21px" height="24px" viewBox="0 0 21 24" version="1.1">
<g id="surface1">
<path style=" stroke:none;fill-rule:nonzero;fill:rgb(53.333333%,62.352941%,73.333333%);fill-opacity:1;" d="M 15.90625 0.289062 C 16.019531 0.574219 16.125 0.863281 16.226562 1.15625 C 16.234375 1.179688 16.242188 1.203125 16.25 1.226562 C 16.445312 1.777344 16.636719 2.332031 16.824219 2.886719 C 16.847656 2.960938 16.875 3.035156 16.898438 3.109375 C 16.914062 3.160156 16.933594 3.207031 16.949219 3.257812 C 17.007812 3.425781 17.066406 3.597656 17.125 3.769531 C 17.328125 4.347656 17.527344 4.929688 17.726562 5.511719 C 17.761719 5.609375 17.792969 5.707031 17.828125 5.804688 C 17.832031 5.820312 17.835938 5.832031 17.84375 5.847656 C 17.851562 5.878906 17.863281 5.90625 17.871094 5.933594 C 17.960938 6.203125 18.054688 6.46875 18.144531 6.738281 C 18.222656 6.964844 18.300781 7.191406 18.378906 7.417969 C 18.46875 7.6875 18.558594 7.953125 18.652344 8.21875 C 18.660156 8.25 18.671875 8.277344 18.679688 8.304688 C 18.6875 8.320312 18.691406 8.332031 18.695312 8.347656 C 18.730469 8.445312 18.761719 8.542969 18.792969 8.640625 C 19 9.238281 19.199219 9.832031 19.398438 10.429688 C 19.460938 10.621094 19.527344 10.808594 19.589844 10.996094 C 19.707031 11.335938 19.824219 11.679688 19.9375 12.023438 C 19.953125 12.066406 19.964844 12.109375 19.980469 12.152344 C 20 12.210938 20.019531 12.273438 20.039062 12.332031 C 20.046875 12.347656 20.050781 12.367188 20.058594 12.382812 C 20.066406 12.410156 20.066406 12.410156 20.074219 12.433594 C 20.078125 12.449219 20.082031 12.460938 20.089844 12.476562 C 20.09375 12.515625 20.09375 12.515625 20.074219 12.574219 C 20.019531 12.601562 20.019531 12.601562 19.941406 12.625 C 19.925781 12.632812 19.914062 12.636719 19.898438 12.640625 C 19.851562 12.65625 19.808594 12.671875 19.761719 12.6875 C 19.730469 12.699219 19.695312 12.707031 19.664062 12.71875 C 19.597656 12.742188 19.53125 12.765625 19.464844 12.785156 C 19.359375 12.820312 19.253906 12.859375 19.148438 12.894531 C 19.082031 12.914062 19.015625 12.9375 18.949219 12.960938 C 18.925781 12.96875 18.925781 12.96875 18.898438 12.976562 C 18.855469 12.992188 18.808594 13.007812 18.761719 13.023438 C 18.734375 13.03125 18.710938 13.039062 18.683594 13.050781 C 18.621094 13.070312 18.621094 13.070312 18.582031 13.070312 C 18.789062 13.695312 19 14.320312 19.214844 14.945312 C 19.269531 15.105469 19.324219 15.265625 19.378906 15.425781 C 19.398438 15.480469 19.414062 15.535156 19.433594 15.589844 C 19.4375 15.605469 19.445312 15.617188 19.449219 15.632812 C 19.5 15.785156 19.554688 15.941406 19.605469 16.097656 C 19.613281 16.109375 19.617188 16.125 19.621094 16.136719 C 19.699219 16.367188 19.777344 16.597656 19.859375 16.828125 C 19.9375 17.066406 20.019531 17.304688 20.101562 17.542969 C 20.152344 17.6875 20.203125 17.832031 20.25 17.980469 C 20.289062 18.089844 20.328125 18.203125 20.367188 18.3125 C 20.382812 18.359375 20.398438 18.402344 20.414062 18.449219 C 20.433594 18.511719 20.453125 18.574219 20.476562 18.636719 C 20.480469 18.652344 20.488281 18.671875 20.496094 18.691406 C 20.5 18.707031 20.507812 18.722656 20.511719 18.742188 C 20.515625 18.753906 20.523438 18.769531 20.527344 18.785156 C 20.535156 18.820312 20.535156 18.820312 20.535156 18.882812 C 19.839844 19.117188 19.140625 19.347656 18.441406 19.574219 C 18.324219 19.613281 18.203125 19.652344 18.085938 19.691406 C 18.070312 19.695312 18.054688 19.699219 18.035156 19.707031 C 18 19.71875 17.964844 19.730469 17.929688 19.742188 C 17.464844 19.894531 16.996094 20.046875 16.527344 20.199219 C 16.507812 20.203125 16.488281 20.210938 16.46875 20.21875 C 15.710938 20.464844 14.949219 20.710938 14.191406 20.960938 C 14.003906 21.019531 13.816406 21.082031 13.628906 21.144531 C 13.605469 21.148438 13.585938 21.15625 13.566406 21.164062 C 12.890625 21.382812 12.21875 21.601562 11.546875 21.820312 C 10.851562 22.046875 10.15625 22.273438 9.464844 22.5 C 9.367188 22.53125 9.269531 22.5625 9.171875 22.59375 C 9.152344 22.601562 9.132812 22.609375 9.113281 22.613281 C 8.800781 22.714844 8.492188 22.816406 8.183594 22.917969 C 7.871094 23.019531 7.5625 23.121094 7.25 23.222656 C 7.066406 23.28125 6.882812 23.34375 6.695312 23.402344 C 6.574219 23.441406 6.449219 23.484375 6.328125 23.523438 C 6.257812 23.546875 6.1875 23.566406 6.117188 23.589844 C 6.039062 23.617188 5.964844 23.640625 5.890625 23.664062 C 5.867188 23.671875 5.847656 23.679688 5.824219 23.6875 C 5.804688 23.695312 5.78125 23.699219 5.761719 23.707031 C 5.746094 23.710938 5.726562 23.71875 5.710938 23.722656 C 5.652344 23.734375 5.613281 23.730469 5.554688 23.710938 C 5.53125 23.675781 5.53125 23.675781 5.515625 23.628906 C 5.507812 23.609375 5.503906 23.59375 5.496094 23.574219 C 5.488281 23.546875 5.488281 23.546875 5.476562 23.515625 C 5.46875 23.496094 5.460938 23.472656 5.457031 23.453125 C 5.433594 23.386719 5.410156 23.316406 5.386719 23.25 C 5.375 23.207031 5.359375 23.164062 5.34375 23.125 C 5.324219 23.054688 5.300781 22.988281 5.277344 22.921875 C 5.207031 22.710938 5.132812 22.5 5.058594 22.289062 C 4.902344 21.835938 4.742188 21.382812 4.585938 20.929688 C 4.5625 20.863281 4.542969 20.796875 4.519531 20.730469 C 4.351562 20.242188 4.183594 19.753906 4.015625 19.265625 C 4.007812 19.246094 4 19.222656 3.996094 19.203125 C 3.9375 19.03125 3.878906 18.859375 3.820312 18.6875 C 3.808594 18.660156 3.808594 18.660156 3.800781 18.636719 C 3.789062 18.601562 3.78125 18.570312 3.769531 18.539062 C 3.75 18.484375 3.730469 18.433594 3.714844 18.378906 C 3.710938 18.367188 3.703125 18.351562 3.699219 18.335938 C 3.628906 18.128906 3.558594 17.925781 3.484375 17.71875 C 3.265625 17.097656 3.054688 16.472656 2.84375 15.847656 C 2.800781 15.730469 2.761719 15.609375 2.71875 15.492188 C 2.714844 15.472656 2.707031 15.457031 2.703125 15.4375 C 2.691406 15.402344 2.675781 15.367188 2.664062 15.332031 C 2.554688 15.007812 2.441406 14.679688 2.332031 14.355469 C 2.238281 14.074219 2.140625 13.796875 2.046875 13.519531 C 1.9375 13.195312 1.824219 12.871094 1.714844 12.542969 C 1.703125 12.511719 1.691406 12.476562 1.679688 12.441406 C 1.671875 12.421875 1.667969 12.40625 1.660156 12.386719 C 1.621094 12.269531 1.578125 12.148438 1.539062 12.03125 C 1.3125 11.367188 1.085938 10.707031 0.867188 10.039062 C 0.78125 9.78125 0.691406 9.523438 0.601562 9.265625 C 0.589844 9.203125 0.585938 9.179688 0.609375 9.125 C 0.652344 9.097656 0.652344 9.097656 0.710938 9.074219 C 0.746094 9.0625 0.746094 9.0625 0.78125 9.050781 C 0.953125 8.988281 1.128906 8.929688 1.308594 8.871094 C 1.351562 8.855469 1.394531 8.84375 1.4375 8.828125 C 1.554688 8.789062 1.667969 8.753906 1.78125 8.714844 C 1.851562 8.691406 1.917969 8.671875 1.984375 8.648438 C 2.316406 8.539062 2.648438 8.429688 2.976562 8.320312 C 3.132812 8.269531 3.289062 8.21875 3.445312 8.167969 C 3.464844 8.160156 3.484375 8.15625 3.507812 8.148438 C 3.824219 8.042969 4.144531 7.9375 4.460938 7.828125 C 4.433594 7.695312 4.394531 7.570312 4.351562 7.441406 C 4.34375 7.410156 4.34375 7.410156 4.332031 7.378906 C 4.308594 7.3125 4.285156 7.242188 4.261719 7.175781 C 4.246094 7.128906 4.230469 7.078125 4.214844 7.03125 C 4.125 6.765625 4.035156 6.503906 3.945312 6.238281 C 3.894531 6.082031 3.839844 5.925781 3.789062 5.769531 C 3.75 5.652344 3.710938 5.535156 3.667969 5.417969 C 3.644531 5.34375 3.621094 5.269531 3.59375 5.195312 C 3.582031 5.160156 3.570312 5.128906 3.558594 5.09375 C 3.5 4.921875 3.445312 4.746094 3.390625 4.574219 C 3.382812 4.550781 3.382812 4.550781 3.375 4.527344 C 3.34375 4.425781 3.34375 4.425781 3.367188 4.355469 C 3.40625 4.335938 3.40625 4.335938 3.457031 4.320312 C 3.476562 4.3125 3.496094 4.304688 3.519531 4.300781 C 3.539062 4.292969 3.5625 4.285156 3.585938 4.277344 C 3.605469 4.269531 3.628906 4.261719 3.652344 4.253906 C 3.730469 4.230469 3.804688 4.207031 3.882812 4.179688 C 3.9375 4.164062 3.988281 4.148438 4.042969 4.128906 C 4.167969 4.089844 4.292969 4.046875 4.417969 4.007812 C 4.566406 3.957031 4.714844 3.910156 4.859375 3.863281 C 5.007812 3.816406 5.15625 3.765625 5.300781 3.71875 C 5.511719 3.652344 5.71875 3.585938 5.925781 3.515625 C 5.941406 3.511719 5.957031 3.503906 5.972656 3.5 C 5.996094 3.492188 5.996094 3.492188 6.023438 3.480469 C 6.554688 3.304688 7.089844 3.128906 7.621094 2.957031 C 7.75 2.914062 7.878906 2.875 8.003906 2.832031 C 8.21875 2.761719 8.433594 2.691406 8.648438 2.625 C 8.660156 2.617188 8.675781 2.613281 8.6875 2.609375 C 8.796875 2.574219 8.90625 2.539062 9.015625 2.503906 C 9.109375 2.472656 9.207031 2.441406 9.300781 2.410156 C 9.316406 2.40625 9.328125 2.402344 9.34375 2.398438 C 9.570312 2.324219 9.796875 2.25 10.023438 2.175781 C 10.148438 2.136719 10.273438 2.09375 10.398438 2.054688 C 10.902344 1.890625 11.40625 1.726562 11.910156 1.558594 C 12.210938 1.457031 12.507812 1.359375 12.808594 1.261719 C 12.847656 1.25 12.886719 1.234375 12.929688 1.222656 C 13.050781 1.183594 13.175781 1.140625 13.296875 1.101562 C 13.410156 1.066406 13.519531 1.03125 13.628906 0.992188 C 14.253906 0.789062 14.878906 0.585938 15.507812 0.390625 C 15.519531 0.386719 15.535156 0.378906 15.550781 0.375 C 15.5625 0.371094 15.578125 0.367188 15.589844 0.363281 C 15.621094 0.351562 15.652344 0.34375 15.683594 0.332031 C 15.710938 0.324219 15.710938 0.324219 15.734375 0.316406 C 15.75 0.308594 15.765625 0.304688 15.78125 0.300781 C 15.824219 0.289062 15.824219 0.289062 15.90625 0.289062 Z M 15.90625 0.289062 "/>
<path style=" stroke:none;fill-rule:nonzero;fill:rgb(7.058824%,7.45098%,26.666667%);fill-opacity:1;" d="M 4.566406 7.890625 C 4.585938 7.925781 4.585938 7.925781 4.597656 7.96875 C 4.601562 7.996094 4.601562 7.996094 4.609375 8.023438 C 4.617188 8.042969 4.621094 8.0625 4.625 8.082031 C 4.695312 8.328125 4.773438 8.566406 4.855469 8.804688 C 4.871094 8.84375 4.882812 8.882812 4.894531 8.921875 C 4.941406 9.058594 4.992188 9.195312 5.039062 9.332031 C 5.078125 9.449219 5.121094 9.566406 5.160156 9.6875 C 5.179688 9.742188 5.199219 9.796875 5.214844 9.851562 C 5.226562 9.882812 5.238281 9.917969 5.25 9.949219 C 5.257812 9.964844 5.261719 9.980469 5.265625 9.996094 C 5.289062 10.066406 5.300781 10.117188 5.300781 10.191406 C 5.113281 10.253906 4.925781 10.316406 4.738281 10.375 C 4.652344 10.40625 4.5625 10.433594 4.476562 10.460938 C 4.390625 10.488281 4.308594 10.519531 4.222656 10.546875 C 4.191406 10.554688 4.160156 10.566406 4.125 10.578125 C 4.082031 10.589844 4.035156 10.605469 3.992188 10.621094 C 3.964844 10.628906 3.941406 10.636719 3.914062 10.644531 C 3.851562 10.664062 3.851562 10.664062 3.789062 10.664062 C 3.847656 10.882812 3.914062 11.101562 3.996094 11.3125 C 4.132812 11.683594 4.257812 12.058594 4.386719 12.433594 C 4.421875 12.539062 4.457031 12.644531 4.496094 12.75 C 4.554688 12.929688 4.617188 13.105469 4.675781 13.285156 C 4.746094 13.488281 4.816406 13.695312 4.886719 13.898438 C 4.945312 14.078125 5.007812 14.253906 5.066406 14.429688 C 5.105469 14.535156 5.140625 14.640625 5.175781 14.746094 C 5.210938 14.84375 5.242188 14.945312 5.277344 15.042969 C 5.289062 15.078125 5.300781 15.113281 5.3125 15.152344 C 5.382812 15.351562 5.449219 15.554688 5.511719 15.761719 C 5.554688 15.910156 5.605469 16.054688 5.65625 16.203125 C 5.664062 16.226562 5.664062 16.226562 5.671875 16.253906 C 5.679688 16.269531 5.683594 16.289062 5.691406 16.304688 C 5.703125 16.34375 5.714844 16.378906 5.730469 16.417969 C 5.753906 16.496094 5.78125 16.574219 5.808594 16.652344 C 5.84375 16.75 5.875 16.847656 5.910156 16.945312 C 6.042969 17.332031 6.175781 17.71875 6.308594 18.105469 C 6.46875 18.558594 6.625 19.011719 6.777344 19.464844 C 6.820312 19.582031 6.859375 19.695312 6.898438 19.8125 C 6.929688 19.902344 6.960938 19.992188 6.992188 20.085938 C 7.003906 20.128906 7.019531 20.171875 7.035156 20.214844 C 7.054688 20.273438 7.074219 20.332031 7.09375 20.390625 C 7.101562 20.40625 7.105469 20.425781 7.113281 20.445312 C 7.15625 20.5625 7.15625 20.5625 7.15625 20.609375 C 7.1875 20.597656 7.1875 20.597656 7.226562 20.585938 C 7.449219 20.511719 7.671875 20.441406 7.898438 20.367188 C 8.011719 20.328125 8.128906 20.292969 8.242188 20.253906 C 8.695312 20.109375 9.144531 19.960938 9.597656 19.816406 C 10 19.691406 10.402344 19.558594 10.800781 19.429688 C 10.816406 19.425781 10.832031 19.417969 10.847656 19.414062 C 11.097656 19.332031 11.347656 19.25 11.597656 19.171875 C 11.863281 19.082031 12.128906 18.996094 12.394531 18.910156 C 12.410156 18.90625 12.429688 18.898438 12.445312 18.894531 C 12.859375 18.757812 13.277344 18.625 13.695312 18.492188 C 13.914062 18.421875 14.132812 18.351562 14.351562 18.277344 C 14.4375 18.25 14.527344 18.21875 14.617188 18.1875 C 14.632812 18.183594 14.648438 18.179688 14.667969 18.171875 C 14.816406 18.121094 14.964844 18.074219 15.113281 18.027344 C 15.300781 17.964844 15.488281 17.902344 15.675781 17.839844 C 15.988281 17.734375 16.300781 17.632812 16.617188 17.53125 C 16.714844 17.5 16.808594 17.464844 16.90625 17.433594 C 16.929688 17.425781 16.953125 17.417969 16.980469 17.410156 C 17.023438 17.394531 17.066406 17.382812 17.109375 17.367188 C 17.125 17.363281 17.144531 17.355469 17.164062 17.347656 C 17.179688 17.34375 17.195312 17.339844 17.214844 17.332031 C 17.253906 17.320312 17.253906 17.320312 17.316406 17.320312 C 17.300781 17.269531 17.285156 17.21875 17.273438 17.167969 C 17.265625 17.152344 17.261719 17.136719 17.257812 17.117188 C 17.21875 16.988281 17.171875 16.859375 17.125 16.730469 C 17.109375 16.667969 17.105469 16.625 17.105469 16.5625 C 16.855469 16.632812 16.609375 16.707031 16.363281 16.789062 C 16.328125 16.800781 16.292969 16.8125 16.257812 16.824219 C 16.183594 16.847656 16.109375 16.871094 16.035156 16.894531 C 15.941406 16.925781 15.84375 16.957031 15.75 16.988281 C 15.675781 17.011719 15.605469 17.035156 15.53125 17.058594 C 15.496094 17.070312 15.460938 17.082031 15.425781 17.09375 C 15.378906 17.109375 15.328125 17.125 15.28125 17.140625 C 15.265625 17.144531 15.25 17.152344 15.238281 17.15625 C 15.160156 17.179688 15.082031 17.207031 15.003906 17.234375 C 14.839844 17.292969 14.671875 17.347656 14.503906 17.402344 C 14.46875 17.414062 14.429688 17.425781 14.394531 17.4375 C 14.3125 17.464844 14.234375 17.492188 14.152344 17.515625 C 14.027344 17.558594 13.902344 17.597656 13.773438 17.640625 C 13.484375 17.734375 13.191406 17.828125 12.898438 17.925781 C 12.632812 18.011719 12.363281 18.097656 12.097656 18.183594 C 11.992188 18.21875 11.886719 18.253906 11.785156 18.289062 C 11.1875 18.480469 11.1875 18.480469 10.589844 18.683594 C 10.457031 18.726562 10.320312 18.773438 10.1875 18.816406 C 10.152344 18.828125 10.121094 18.839844 10.089844 18.847656 C 10.039062 18.863281 9.992188 18.882812 9.941406 18.898438 C 9.925781 18.902344 9.914062 18.90625 9.898438 18.910156 C 9.828125 18.933594 9.777344 18.945312 9.699219 18.945312 C 9.695312 18.933594 9.691406 18.921875 9.6875 18.914062 C 9.640625 18.765625 9.589844 18.617188 9.542969 18.472656 C 9.535156 18.449219 9.527344 18.421875 9.519531 18.398438 C 9.40625 18.070312 9.296875 17.742188 9.183594 17.414062 C 9.179688 17.398438 9.171875 17.378906 9.167969 17.363281 C 9.109375 17.195312 9.054688 17.027344 8.996094 16.863281 C 8.972656 16.800781 8.953125 16.738281 8.929688 16.675781 C 8.921875 16.644531 8.910156 16.617188 8.902344 16.585938 C 8.886719 16.546875 8.875 16.503906 8.859375 16.464844 C 8.851562 16.441406 8.84375 16.417969 8.835938 16.398438 C 8.820312 16.34375 8.804688 16.289062 8.796875 16.234375 C 9.023438 16.148438 9.25 16.070312 9.480469 15.992188 C 9.511719 15.984375 9.542969 15.972656 9.574219 15.960938 C 9.660156 15.933594 9.742188 15.90625 9.824219 15.878906 C 9.925781 15.847656 10.027344 15.8125 10.128906 15.78125 C 10.207031 15.753906 10.289062 15.726562 10.371094 15.699219 C 10.398438 15.691406 10.429688 15.679688 10.460938 15.671875 C 10.484375 15.664062 10.484375 15.664062 10.503906 15.65625 C 10.585938 15.628906 10.671875 15.601562 10.753906 15.574219 C 10.769531 15.566406 10.789062 15.5625 10.804688 15.554688 C 10.835938 15.546875 10.867188 15.535156 10.894531 15.523438 C 10.984375 15.496094 11.058594 15.488281 11.152344 15.492188 C 11.230469 15.628906 11.257812 15.75 11.277344 15.902344 C 11.292969 15.902344 11.304688 15.902344 11.320312 15.902344 C 11.328125 15.929688 11.328125 15.929688 11.332031 15.953125 C 11.339844 15.976562 11.34375 15.996094 11.347656 16.019531 C 11.359375 16.050781 11.359375 16.050781 11.367188 16.085938 C 11.382812 16.148438 11.402344 16.210938 11.425781 16.273438 C 11.847656 16.136719 12.273438 16 12.695312 15.859375 C 13.003906 15.761719 13.3125 15.660156 13.621094 15.558594 C 13.828125 15.492188 14.035156 15.425781 14.242188 15.355469 C 14.425781 15.296875 14.605469 15.238281 14.789062 15.179688 C 14.882812 15.148438 14.980469 15.117188 15.074219 15.085938 C 15.425781 14.972656 15.773438 14.859375 16.125 14.746094 C 16.148438 14.738281 16.171875 14.730469 16.199219 14.722656 C 16.230469 14.714844 16.230469 14.714844 16.265625 14.703125 C 16.292969 14.691406 16.292969 14.691406 16.324219 14.683594 C 16.371094 14.671875 16.371094 14.671875 16.433594 14.671875 C 16.425781 14.648438 16.417969 14.625 16.410156 14.601562 C 16.382812 14.519531 16.355469 14.433594 16.328125 14.351562 C 16.316406 14.316406 16.304688 14.277344 16.289062 14.242188 C 16.273438 14.191406 16.257812 14.136719 16.238281 14.085938 C 16.234375 14.070312 16.226562 14.054688 16.222656 14.035156 C 16.21875 14.019531 16.210938 14.003906 16.207031 13.988281 C 16.199219 13.96875 16.199219 13.96875 16.195312 13.949219 C 16.179688 13.910156 16.171875 13.871094 16.160156 13.828125 C 16.273438 13.789062 16.386719 13.75 16.496094 13.710938 C 16.535156 13.699219 16.574219 13.6875 16.613281 13.671875 C 16.824219 13.601562 17.039062 13.527344 17.253906 13.460938 C 17.433594 13.410156 17.609375 13.351562 17.785156 13.292969 C 17.816406 13.28125 17.851562 13.273438 17.882812 13.261719 C 17.90625 13.253906 17.90625 13.253906 17.929688 13.246094 C 17.960938 13.234375 17.992188 13.226562 18.023438 13.214844 C 18.097656 13.191406 18.175781 13.167969 18.25 13.140625 C 18.265625 13.136719 18.277344 13.128906 18.292969 13.125 C 18.332031 13.113281 18.371094 13.097656 18.410156 13.085938 C 18.472656 13.070312 18.5 13.066406 18.558594 13.089844 C 18.558594 13.109375 18.558594 13.128906 18.558594 13.152344 C 18.574219 13.152344 18.585938 13.152344 18.601562 13.152344 C 18.847656 13.871094 19.09375 14.59375 19.339844 15.316406 C 19.371094 15.398438 19.398438 15.484375 19.429688 15.570312 C 19.4375 15.597656 19.4375 15.597656 19.445312 15.621094 C 19.539062 15.894531 19.632812 16.171875 19.726562 16.445312 C 19.824219 16.726562 19.921875 17.007812 20.015625 17.289062 C 20.074219 17.464844 20.136719 17.636719 20.195312 17.8125 C 20.234375 17.929688 20.277344 18.050781 20.316406 18.167969 C 20.339844 18.238281 20.363281 18.308594 20.386719 18.375 C 20.414062 18.449219 20.4375 18.523438 20.464844 18.597656 C 20.472656 18.621094 20.480469 18.644531 20.488281 18.664062 C 20.492188 18.683594 20.5 18.707031 20.507812 18.726562 C 20.515625 18.75 20.515625 18.75 20.523438 18.777344 C 20.535156 18.820312 20.535156 18.820312 20.535156 18.882812 C 19.839844 19.117188 19.140625 19.347656 18.441406 19.574219 C 18.324219 19.613281 18.203125 19.652344 18.085938 19.691406 C 18.070312 19.695312 18.054688 19.699219 18.035156 19.707031 C 18 19.71875 17.964844 19.730469 17.929688 19.742188 C 17.464844 19.894531 16.996094 20.046875 16.527344 20.199219 C 16.507812 20.203125 16.488281 20.210938 16.46875 20.21875 C 15.710938 20.464844 14.949219 20.710938 14.191406 20.960938 C 14.003906 21.019531 13.816406 21.082031 13.628906 21.144531 C 13.605469 21.148438 13.585938 21.15625 13.566406 21.164062 C 12.890625 21.382812 12.21875 21.601562 11.546875 21.820312 C 10.851562 22.046875 10.15625 22.273438 9.464844 22.5 C 9.367188 22.53125 9.269531 22.5625 9.171875 22.59375 C 9.152344 22.601562 9.132812 22.609375 9.113281 22.613281 C 8.800781 22.714844 8.492188 22.816406 8.183594 22.917969 C 7.871094 23.019531 7.5625 23.121094 7.25 23.222656 C 7.066406 23.28125 6.882812 23.34375 6.695312 23.402344 C 6.574219 23.441406 6.449219 23.484375 6.328125 23.523438 C 6.257812 23.546875 6.1875 23.566406 6.117188 23.589844 C 6.039062 23.617188 5.964844 23.640625 5.890625 23.664062 C 5.867188 23.671875 5.847656 23.679688 5.824219 23.6875 C 5.804688 23.695312 5.78125 23.699219 5.761719 23.707031 C 5.746094 23.710938 5.726562 23.71875 5.710938 23.722656 C 5.652344 23.734375 5.613281 23.730469 5.554688 23.710938 C 5.53125 23.675781 5.53125 23.675781 5.515625 23.628906 C 5.507812 23.609375 5.503906 23.59375 5.496094 23.574219 C 5.488281 23.554688 5.484375 23.535156 5.476562 23.515625 C 5.46875 23.496094 5.460938 23.472656 5.457031 23.453125 C 5.433594 23.386719 5.410156 23.316406 5.386719 23.25 C 5.375 23.207031 5.359375 23.164062 5.34375 23.125 C 5.324219 23.054688 5.300781 22.988281 5.277344 22.921875 C 5.207031 22.710938 5.132812 22.5 5.058594 22.289062 C 4.902344 21.835938 4.742188 21.382812 4.585938 20.929688 C 4.5625 20.863281 4.542969 20.796875 4.519531 20.730469 C 4.351562 20.242188 4.183594 19.753906 4.015625 19.265625 C 4.007812 19.246094 4 19.222656 3.996094 19.203125 C 3.9375 19.03125 3.878906 18.859375 3.820312 18.6875 C 3.808594 18.660156 3.808594 18.660156 3.800781 18.636719 C 3.789062 18.601562 3.78125 18.570312 3.769531 18.539062 C 3.75 18.484375 3.730469 18.433594 3.714844 18.378906 C 3.710938 18.367188 3.703125 18.351562 3.699219 18.335938 C 3.628906 18.128906 3.558594 17.925781 3.484375 17.71875 C 3.265625 17.097656 3.054688 16.472656 2.84375 15.847656 C 2.800781 15.730469 2.761719 15.609375 2.71875 15.492188 C 2.714844 15.472656 2.707031 15.457031 2.703125 15.4375 C 2.691406 15.402344 2.675781 15.367188 2.664062 15.332031 C 2.554688 15.007812 2.441406 14.679688 2.332031 14.355469 C 2.238281 14.074219 2.140625 13.796875 2.046875 13.519531 C 1.9375 13.195312 1.824219 12.871094 1.714844 12.542969 C 1.703125 12.511719 1.691406 12.476562 1.679688 12.441406 C 1.671875 12.421875 1.667969 12.40625 1.660156 12.386719 C 1.621094 12.269531 1.578125 12.148438 1.539062 12.03125 C 1.3125 11.367188 1.085938 10.707031 0.867188 10.039062 C 0.78125 9.78125 0.691406 9.523438 0.601562 9.265625 C 0.582031 9.179688 0.582031 9.179688 0.609375 9.125 C 0.660156 9.101562 0.703125 9.089844 0.75 9.074219 C 0.78125 9.066406 0.8125 9.058594 0.84375 9.050781 C 0.863281 9.046875 0.878906 9.039062 0.894531 9.035156 C 0.984375 9.011719 1.070312 8.980469 1.160156 8.949219 C 1.175781 8.945312 1.195312 8.9375 1.214844 8.933594 C 1.253906 8.917969 1.292969 8.90625 1.332031 8.890625 C 1.441406 8.855469 1.550781 8.820312 1.660156 8.785156 C 1.683594 8.777344 1.707031 8.769531 1.730469 8.761719 C 1.976562 8.679688 2.222656 8.597656 2.46875 8.515625 C 2.492188 8.507812 2.515625 8.5 2.535156 8.492188 C 2.671875 8.449219 2.804688 8.40625 2.9375 8.363281 C 3.027344 8.332031 3.121094 8.300781 3.210938 8.273438 C 3.324219 8.234375 3.433594 8.199219 3.542969 8.164062 C 3.566406 8.15625 3.585938 8.148438 3.605469 8.140625 C 3.71875 8.105469 3.832031 8.066406 3.945312 8.03125 C 4 8.011719 4.050781 7.996094 4.105469 7.976562 C 4.140625 7.964844 4.175781 7.957031 4.210938 7.945312 C 4.222656 7.9375 4.238281 7.933594 4.257812 7.929688 C 4.484375 7.855469 4.484375 7.855469 4.566406 7.890625 Z M 4.566406 7.890625 "/>
<path style=" stroke:none;fill-rule:nonzero;fill:rgb(53.333333%,62.352941%,73.333333%);fill-opacity:1;" d="M 15.90625 0.289062 C 16.019531 0.574219 16.125 0.863281 16.226562 1.15625 C 16.234375 1.179688 16.242188 1.203125 16.25 1.226562 C 16.445312 1.777344 16.636719 2.332031 16.824219 2.886719 C 16.847656 2.960938 16.875 3.035156 16.898438 3.109375 C 16.914062 3.160156 16.933594 3.207031 16.949219 3.257812 C 17.007812 3.425781 17.066406 3.597656 17.125 3.769531 C 17.328125 4.347656 17.527344 4.929688 17.726562 5.511719 C 17.761719 5.609375 17.792969 5.707031 17.828125 5.804688 C 17.832031 5.820312 17.835938 5.832031 17.84375 5.847656 C 17.851562 5.878906 17.863281 5.90625 17.871094 5.933594 C 17.960938 6.203125 18.054688 6.46875 18.144531 6.738281 C 18.222656 6.964844 18.300781 7.191406 18.378906 7.417969 C 18.46875 7.6875 18.558594 7.953125 18.652344 8.21875 C 18.660156 8.25 18.671875 8.277344 18.679688 8.304688 C 18.6875 8.320312 18.691406 8.332031 18.695312 8.347656 C 18.730469 8.445312 18.761719 8.542969 18.792969 8.640625 C 19 9.238281 19.199219 9.832031 19.398438 10.429688 C 19.460938 10.621094 19.527344 10.808594 19.589844 10.996094 C 19.707031 11.335938 19.824219 11.679688 19.9375 12.023438 C 19.953125 12.066406 19.964844 12.109375 19.980469 12.152344 C 20 12.210938 20.019531 12.273438 20.039062 12.332031 C 20.046875 12.347656 20.050781 12.367188 20.058594 12.382812 C 20.066406 12.410156 20.066406 12.410156 20.074219 12.433594 C 20.078125 12.449219 20.082031 12.460938 20.089844 12.476562 C 20.09375 12.515625 20.09375 12.515625 20.074219 12.574219 C 20.019531 12.601562 20.019531 12.601562 19.941406 12.625 C 19.925781 12.632812 19.914062 12.636719 19.898438 12.640625 C 19.851562 12.65625 19.808594 12.671875 19.761719 12.6875 C 19.730469 12.699219 19.695312 12.707031 19.664062 12.71875 C 19.597656 12.742188 19.53125 12.765625 19.464844 12.785156 C 19.359375 12.820312 19.253906 12.859375 19.148438 12.894531 C 19.082031 12.914062 19.015625 12.9375 18.949219 12.960938 C 18.925781 12.96875 18.925781 12.96875 18.898438 12.976562 C 18.855469 12.992188 18.808594 13.007812 18.761719 13.023438 C 18.734375 13.03125 18.710938 13.039062 18.683594 13.050781 C 18.621094 13.070312 18.621094 13.070312 18.582031 13.070312 C 18.574219 13.09375 18.566406 13.121094 18.558594 13.152344 C 18.480469 12.941406 18.40625 12.730469 18.332031 12.515625 C 18.316406 12.46875 18.300781 12.421875 18.28125 12.375 C 18.277344 12.363281 18.273438 12.347656 18.265625 12.332031 C 18.238281 12.246094 18.207031 12.164062 18.175781 12.082031 C 18.136719 11.972656 18.101562 11.867188 18.070312 11.757812 C 18.050781 11.6875 18.03125 11.625 18 11.558594 C 17.960938 11.464844 17.933594 11.367188 17.90625 11.265625 C 17.882812 11.195312 17.863281 11.132812 17.832031 11.066406 C 17.792969 10.96875 17.765625 10.871094 17.734375 10.773438 C 17.707031 10.679688 17.671875 10.589844 17.632812 10.5 C 17.625 10.472656 17.613281 10.449219 17.605469 10.421875 C 17.601562 10.40625 17.59375 10.386719 17.589844 10.371094 C 17.578125 10.34375 17.578125 10.34375 17.570312 10.316406 C 17.554688 10.269531 17.539062 10.226562 17.523438 10.179688 C 17.066406 8.839844 17.066406 8.839844 17.046875 8.789062 C 17.039062 8.757812 17.027344 8.726562 17.015625 8.695312 C 16.992188 8.625 16.96875 8.554688 16.945312 8.484375 C 16.894531 8.332031 16.839844 8.179688 16.789062 8.03125 C 16.757812 7.9375 16.726562 7.847656 16.695312 7.757812 C 16.679688 7.714844 16.664062 7.667969 16.652344 7.625 C 16.628906 7.5625 16.609375 7.5 16.585938 7.4375 C 16.578125 7.410156 16.578125 7.410156 16.566406 7.382812 C 16.539062 7.292969 16.511719 7.207031 16.488281 7.113281 C 16.460938 7.007812 16.421875 6.90625 16.386719 6.804688 C 16.378906 6.777344 16.371094 6.753906 16.363281 6.726562 C 16.339844 6.65625 16.316406 6.589844 16.292969 6.519531 C 16.277344 6.476562 16.265625 6.433594 16.25 6.390625 C 16.113281 5.980469 15.972656 5.574219 15.828125 5.167969 C 15.769531 4.996094 15.710938 4.824219 15.652344 4.652344 C 15.625 4.574219 15.597656 4.496094 15.570312 4.417969 C 15.558594 4.375 15.542969 4.335938 15.527344 4.292969 C 15.398438 4.320312 15.273438 4.355469 15.144531 4.394531 C 15.128906 4.402344 15.109375 4.40625 15.089844 4.414062 C 15.03125 4.433594 14.96875 4.453125 14.910156 4.472656 C 14.867188 4.488281 14.824219 4.5 14.78125 4.515625 C 14.691406 4.542969 14.601562 4.574219 14.507812 4.605469 C 14.398438 4.640625 14.285156 4.675781 14.171875 4.714844 C 13.738281 4.855469 13.304688 5 12.871094 5.144531 C 12.539062 5.253906 12.207031 5.363281 11.875 5.472656 C 11.710938 5.523438 11.550781 5.574219 11.390625 5.628906 C 11.375 5.632812 11.359375 5.636719 11.347656 5.640625 C 11.273438 5.664062 11.199219 5.691406 11.128906 5.714844 C 10.992188 5.757812 10.859375 5.800781 10.722656 5.84375 C 10.644531 5.871094 10.570312 5.894531 10.492188 5.921875 C 10.460938 5.929688 10.429688 5.941406 10.398438 5.949219 C 10.382812 5.957031 10.371094 5.960938 10.351562 5.964844 C 9.105469 6.371094 9.105469 6.371094 9.042969 6.390625 C 9.003906 6.402344 8.96875 6.417969 8.929688 6.429688 C 8.914062 6.433594 8.894531 6.441406 8.878906 6.445312 C 8.863281 6.449219 8.851562 6.453125 8.835938 6.460938 C 8.796875 6.472656 8.753906 6.484375 8.714844 6.5 C 8.6875 6.507812 8.664062 6.515625 8.636719 6.523438 C 8.609375 6.53125 8.585938 6.539062 8.558594 6.550781 C 8.507812 6.566406 8.457031 6.585938 8.40625 6.601562 C 8.273438 6.652344 8.136719 6.695312 8 6.738281 C 7.960938 6.75 7.921875 6.765625 7.882812 6.777344 C 7.851562 6.789062 7.820312 6.796875 7.789062 6.808594 C 7.621094 6.863281 7.449219 6.917969 7.277344 6.972656 C 7.015625 7.058594 6.753906 7.144531 6.488281 7.230469 C 6.339844 7.277344 6.1875 7.328125 6.035156 7.375 C 5.925781 7.414062 5.816406 7.449219 5.703125 7.484375 C 5.59375 7.519531 5.484375 7.554688 5.375 7.589844 C 5.332031 7.605469 5.292969 7.617188 5.25 7.632812 C 5.195312 7.648438 5.136719 7.667969 5.078125 7.6875 C 5.0625 7.691406 5.046875 7.699219 5.027344 7.703125 C 4.957031 7.726562 4.886719 7.753906 4.820312 7.789062 C 4.796875 7.789062 4.773438 7.792969 4.75 7.796875 C 4.683594 7.804688 4.648438 7.816406 4.589844 7.84375 C 4.507812 7.882812 4.425781 7.90625 4.335938 7.929688 C 4.058594 8.007812 3.785156 8.101562 3.507812 8.191406 C 3.460938 8.207031 3.414062 8.222656 3.367188 8.238281 C 2.847656 8.410156 2.328125 8.582031 1.808594 8.753906 C 1.660156 8.804688 1.515625 8.851562 1.371094 8.898438 C 1.324219 8.917969 1.277344 8.933594 1.230469 8.949219 C 1.164062 8.96875 1.097656 8.992188 1.03125 9.015625 C 1.011719 9.019531 0.992188 9.027344 0.972656 9.035156 C 0.878906 9.066406 0.792969 9.089844 0.695312 9.101562 C 0.738281 9.058594 0.761719 9.050781 0.816406 9.03125 C 0.84375 9.023438 0.84375 9.023438 0.871094 9.015625 C 0.890625 9.007812 0.910156 9 0.929688 8.996094 C 0.949219 8.988281 0.96875 8.980469 0.992188 8.976562 C 1.0625 8.953125 1.132812 8.929688 1.203125 8.90625 C 1.253906 8.886719 1.304688 8.871094 1.355469 8.855469 C 1.472656 8.816406 1.589844 8.777344 1.707031 8.738281 C 1.988281 8.648438 2.269531 8.554688 2.550781 8.460938 C 2.597656 8.445312 2.640625 8.433594 2.6875 8.417969 C 2.707031 8.410156 2.730469 8.402344 2.753906 8.394531 C 2.886719 8.351562 3.019531 8.308594 3.148438 8.265625 C 3.585938 8.121094 4.023438 7.976562 4.460938 7.828125 C 4.433594 7.695312 4.394531 7.570312 4.351562 7.441406 C 4.34375 7.410156 4.34375 7.410156 4.332031 7.378906 C 4.308594 7.3125 4.285156 7.242188 4.261719 7.175781 C 4.246094 7.128906 4.230469 7.078125 4.214844 7.03125 C 4.125 6.765625 4.035156 6.503906 3.945312 6.238281 C 3.894531 6.082031 3.839844 5.925781 3.789062 5.769531 C 3.75 5.652344 3.710938 5.535156 3.667969 5.417969 C 3.644531 5.34375 3.621094 5.269531 3.59375 5.195312 C 3.582031 5.160156 3.570312 5.128906 3.558594 5.09375 C 3.5 4.921875 3.445312 4.746094 3.390625 4.574219 C 3.382812 4.558594 3.378906 4.542969 3.375 4.527344 C 3.34375 4.425781 3.34375 4.425781 3.367188 4.355469 C 3.40625 4.335938 3.40625 4.335938 3.457031 4.320312 C 3.476562 4.3125 3.496094 4.304688 3.519531 4.300781 C 3.539062 4.292969 3.5625 4.285156 3.585938 4.277344 C 3.605469 4.269531 3.628906 4.261719 3.652344 4.253906 C 3.730469 4.230469 3.804688 4.207031 3.882812 4.179688 C 3.9375 4.164062 3.988281 4.148438 4.042969 4.128906 C 4.167969 4.089844 4.292969 4.046875 4.417969 4.007812 C 4.566406 3.957031 4.714844 3.910156 4.859375 3.863281 C 5.007812 3.816406 5.15625 3.765625 5.300781 3.71875 C 5.511719 3.652344 5.71875 3.585938 5.925781 3.515625 C 5.941406 3.511719 5.957031 3.503906 5.972656 3.5 C 5.996094 3.492188 5.996094 3.492188 6.023438 3.480469 C 6.554688 3.304688 7.089844 3.128906 7.621094 2.957031 C 7.75 2.914062 7.878906 2.875 8.003906 2.832031 C 8.21875 2.761719 8.433594 2.691406 8.648438 2.625 C 8.660156 2.617188 8.675781 2.613281 8.6875 2.609375 C 8.796875 2.574219 8.90625 2.539062 9.015625 2.503906 C 9.109375 2.472656 9.207031 2.441406 9.300781 2.410156 C 9.316406 2.40625 9.328125 2.402344 9.34375 2.398438 C 9.570312 2.324219 9.796875 2.25 10.023438 2.175781 C 10.148438 2.136719 10.273438 2.09375 10.398438 2.054688 C 10.902344 1.890625 11.40625 1.726562 11.910156 1.558594 C 12.210938 1.457031 12.507812 1.359375 12.808594 1.261719 C 12.847656 1.25 12.886719 1.234375 12.929688 1.222656 C 13.050781 1.183594 13.175781 1.140625 13.296875 1.101562 C 13.410156 1.066406 13.519531 1.03125 13.628906 0.992188 C 14.253906 0.789062 14.878906 0.585938 15.507812 0.390625 C 15.519531 0.386719 15.535156 0.378906 15.550781 0.375 C 15.5625 0.371094 15.578125 0.367188 15.589844 0.363281 C 15.621094 0.351562 15.652344 0.34375 15.683594 0.332031 C 15.710938 0.324219 15.710938 0.324219 15.734375 0.316406 C 15.75 0.308594 15.765625 0.304688 15.78125 0.300781 C 15.824219 0.289062 15.824219 0.289062 15.90625 0.289062 Z M 15.90625 0.289062 "/>
<path style=" stroke:none;fill-rule:nonzero;fill:rgb(99.607843%,99.607843%,99.607843%);fill-opacity:1;" d="M 15.550781 4.292969 C 15.574219 4.34375 15.574219 4.34375 15.597656 4.40625 C 15.605469 4.429688 15.613281 4.453125 15.621094 4.476562 C 15.628906 4.503906 15.636719 4.527344 15.644531 4.554688 C 15.660156 4.601562 15.675781 4.648438 15.691406 4.699219 C 15.703125 4.734375 15.703125 4.734375 15.714844 4.773438 C 15.78125 4.976562 15.851562 5.179688 15.921875 5.382812 C 16.0625 5.773438 16.195312 6.167969 16.328125 6.5625 C 16.335938 6.582031 16.34375 6.605469 16.351562 6.628906 C 16.421875 6.839844 16.492188 7.050781 16.558594 7.265625 C 16.640625 7.542969 16.738281 7.816406 16.832031 8.09375 C 16.859375 8.167969 16.882812 8.246094 16.910156 8.320312 C 16.945312 8.425781 16.980469 8.53125 17.015625 8.636719 C 17.066406 8.777344 17.113281 8.917969 17.164062 9.0625 C 17.34375 9.589844 17.523438 10.117188 17.714844 10.640625 C 17.753906 10.75 17.789062 10.859375 17.820312 10.964844 C 17.863281 11.09375 17.910156 11.21875 17.957031 11.347656 C 17.984375 11.417969 18.007812 11.496094 18.03125 11.570312 C 18.050781 11.621094 18.066406 11.671875 18.085938 11.722656 C 18.425781 12.714844 18.425781 12.714844 18.4375 12.757812 C 18.449219 12.789062 18.460938 12.820312 18.472656 12.851562 C 18.476562 12.867188 18.484375 12.882812 18.488281 12.898438 C 18.496094 12.914062 18.5 12.929688 18.503906 12.945312 C 18.515625 12.984375 18.515625 12.984375 18.515625 13.070312 C 17.628906 13.363281 17.628906 13.363281 17.230469 13.492188 C 17.136719 13.523438 17.039062 13.558594 16.941406 13.589844 C 16.871094 13.613281 16.800781 13.636719 16.734375 13.65625 C 16.699219 13.667969 16.667969 13.679688 16.632812 13.691406 C 16.585938 13.707031 16.539062 13.722656 16.492188 13.738281 C 16.476562 13.742188 16.464844 13.746094 16.449219 13.753906 C 16.351562 13.785156 16.261719 13.796875 16.160156 13.808594 C 16.152344 13.785156 16.144531 13.765625 16.136719 13.742188 C 16.109375 13.660156 16.078125 13.578125 16.050781 13.492188 C 16.03125 13.433594 16.011719 13.378906 15.988281 13.320312 C 15.925781 13.132812 15.859375 12.949219 15.792969 12.761719 C 15.648438 12.351562 15.507812 11.9375 15.367188 11.523438 C 15.335938 11.4375 15.308594 11.347656 15.277344 11.261719 C 15.257812 11.203125 15.238281 11.144531 15.21875 11.089844 C 15.207031 11.054688 15.207031 11.054688 15.195312 11.023438 C 15.1875 11 15.179688 10.976562 15.171875 10.953125 C 15.152344 10.898438 15.136719 10.847656 15.117188 10.796875 C 15.109375 10.765625 15.097656 10.738281 15.089844 10.710938 C 15.082031 10.695312 15.078125 10.679688 15.074219 10.664062 C 14.457031 8.855469 14.457031 8.855469 14.441406 8.808594 C 14.429688 8.78125 14.421875 8.753906 14.410156 8.722656 C 14.390625 8.667969 14.371094 8.609375 14.351562 8.554688 C 14.3125 8.4375 14.269531 8.316406 14.230469 8.199219 C 14.222656 8.175781 14.214844 8.15625 14.207031 8.132812 C 14.183594 8.066406 14.160156 8 14.136719 7.933594 C 14.113281 7.867188 14.089844 7.800781 14.066406 7.734375 C 14.054688 7.691406 14.039062 7.648438 14.023438 7.609375 C 14.015625 7.589844 14.011719 7.570312 14.003906 7.550781 C 14 7.535156 13.992188 7.519531 13.988281 7.5 C 13.976562 7.46875 13.960938 7.433594 13.949219 7.398438 C 13.808594 7.410156 13.675781 7.457031 13.542969 7.5 C 13.492188 7.519531 13.4375 7.535156 13.386719 7.550781 C 13.363281 7.5625 13.335938 7.570312 13.308594 7.578125 C 13.203125 7.613281 13.097656 7.648438 12.992188 7.683594 C 12.949219 7.695312 12.90625 7.710938 12.867188 7.722656 C 12.652344 7.792969 12.652344 7.792969 12.613281 7.804688 C 12.585938 7.816406 12.558594 7.824219 12.527344 7.832031 C 12.457031 7.855469 12.382812 7.878906 12.3125 7.902344 C 12.167969 7.949219 12.027344 7.996094 11.882812 8.042969 C 11.816406 8.066406 11.746094 8.089844 11.679688 8.109375 C 11.644531 8.121094 11.613281 8.132812 11.578125 8.144531 C 11.417969 8.195312 11.257812 8.246094 11.09375 8.289062 C 11.042969 8.300781 10.996094 8.320312 10.945312 8.339844 C 10.835938 8.386719 10.726562 8.414062 10.613281 8.445312 C 10.484375 8.480469 10.363281 8.523438 10.242188 8.566406 C 10.039062 8.644531 9.835938 8.710938 9.632812 8.777344 C 9.582031 8.792969 9.535156 8.808594 9.484375 8.824219 C 9.386719 8.855469 9.292969 8.886719 9.195312 8.917969 C 9.15625 8.929688 9.121094 8.941406 9.082031 8.953125 C 9.027344 8.96875 8.96875 8.988281 8.914062 9.003906 C 8.570312 9.113281 8.226562 9.226562 7.886719 9.335938 C 7.6875 9.402344 7.492188 9.464844 7.296875 9.527344 C 7.167969 9.570312 7.042969 9.613281 6.914062 9.652344 C 6.804688 9.6875 6.695312 9.722656 6.585938 9.757812 C 6.480469 9.792969 6.371094 9.828125 6.261719 9.863281 C 6.222656 9.878906 6.183594 9.890625 6.144531 9.902344 C 6.085938 9.921875 6.03125 9.941406 5.972656 9.957031 C 5.957031 9.964844 5.9375 9.96875 5.921875 9.976562 C 5.832031 10.003906 5.746094 10.035156 5.660156 10.0625 C 5.644531 10.070312 5.628906 10.074219 5.613281 10.082031 C 5.582031 10.09375 5.550781 10.101562 5.519531 10.113281 C 5.449219 10.140625 5.398438 10.152344 5.324219 10.152344 C 5.316406 10.125 5.308594 10.101562 5.296875 10.078125 C 5.222656 9.847656 5.144531 9.617188 5.066406 9.390625 C 5.023438 9.273438 4.984375 9.152344 4.945312 9.035156 C 4.90625 8.921875 4.867188 8.808594 4.828125 8.695312 C 4.8125 8.652344 4.796875 8.609375 4.785156 8.566406 C 4.761719 8.503906 4.742188 8.441406 4.722656 8.382812 C 4.714844 8.363281 4.710938 8.347656 4.703125 8.328125 C 4.667969 8.222656 4.628906 8.121094 4.582031 8.019531 C 4.5625 7.960938 4.550781 7.90625 4.546875 7.847656 C 4.613281 7.8125 4.671875 7.789062 4.75 7.773438 C 4.886719 7.742188 5.019531 7.695312 5.152344 7.648438 C 5.246094 7.617188 5.339844 7.585938 5.4375 7.554688 C 5.457031 7.546875 5.480469 7.539062 5.5 7.53125 C 5.839844 7.417969 6.183594 7.308594 6.523438 7.199219 C 6.558594 7.1875 6.589844 7.175781 6.625 7.164062 C 6.753906 7.121094 6.886719 7.082031 7.015625 7.039062 C 7.175781 6.984375 7.335938 6.933594 7.496094 6.882812 C 7.527344 6.871094 7.558594 6.863281 7.589844 6.851562 C 7.648438 6.832031 7.707031 6.8125 7.765625 6.792969 C 7.964844 6.730469 8.164062 6.667969 8.363281 6.605469 C 8.449219 6.578125 8.535156 6.546875 8.621094 6.511719 C 8.707031 6.480469 8.796875 6.457031 8.886719 6.433594 C 8.945312 6.417969 9 6.398438 9.058594 6.375 C 9.179688 6.328125 9.300781 6.285156 9.421875 6.246094 C 9.449219 6.238281 9.472656 6.230469 9.496094 6.222656 C 9.5625 6.199219 9.628906 6.179688 9.695312 6.160156 C 9.761719 6.136719 9.832031 6.113281 9.902344 6.089844 C 10.035156 6.046875 10.167969 6.003906 10.300781 5.960938 C 10.445312 5.914062 10.59375 5.867188 10.742188 5.816406 C 10.984375 5.738281 11.222656 5.660156 11.460938 5.582031 C 11.488281 5.574219 11.515625 5.566406 11.542969 5.558594 C 11.636719 5.527344 11.730469 5.496094 11.828125 5.464844 C 12.179688 5.351562 12.535156 5.234375 12.886719 5.117188 C 13.09375 5.046875 13.300781 4.980469 13.507812 4.910156 C 13.527344 4.90625 13.542969 4.898438 13.5625 4.894531 C 13.820312 4.808594 14.082031 4.722656 14.339844 4.636719 C 14.453125 4.601562 14.566406 4.5625 14.679688 4.527344 C 14.789062 4.492188 14.894531 4.453125 15.003906 4.417969 C 15.042969 4.40625 15.085938 4.394531 15.125 4.378906 C 15.179688 4.359375 15.238281 4.34375 15.292969 4.324219 C 15.308594 4.320312 15.324219 4.3125 15.34375 4.308594 C 15.472656 4.265625 15.472656 4.265625 15.550781 4.292969 Z M 15.550781 4.292969 "/>
<path style=" stroke:none;fill-rule:nonzero;fill:rgb(99.607843%,99.607843%,99.607843%);fill-opacity:1;" d="M 12.5 8.527344 C 12.503906 8.550781 12.511719 8.574219 12.519531 8.597656 C 12.527344 8.628906 12.539062 8.660156 12.546875 8.6875 C 12.550781 8.703125 12.554688 8.71875 12.558594 8.734375 C 12.582031 8.8125 12.609375 8.890625 12.640625 8.96875 C 12.695312 9.097656 12.742188 9.234375 12.789062 9.367188 C 12.796875 9.394531 12.808594 9.421875 12.816406 9.449219 C 12.835938 9.507812 12.855469 9.5625 12.875 9.621094 C 12.898438 9.691406 12.925781 9.765625 12.949219 9.835938 C 12.96875 9.890625 12.988281 9.949219 13.007812 10.003906 C 13.015625 10.03125 13.023438 10.058594 13.035156 10.085938 C 13.046875 10.121094 13.058594 10.160156 13.070312 10.195312 C 13.078125 10.21875 13.085938 10.238281 13.09375 10.257812 C 13.109375 10.316406 13.109375 10.316406 13.109375 10.398438 C 13.097656 10.402344 13.085938 10.40625 13.074219 10.40625 C 12.804688 10.496094 12.53125 10.585938 12.257812 10.675781 C 12.125 10.714844 11.996094 10.757812 11.863281 10.800781 C 11.074219 11.058594 11.074219 11.058594 10.285156 11.320312 C 10.222656 11.34375 10.160156 11.363281 10.101562 11.382812 C 10.0625 11.394531 10.0625 11.394531 10.027344 11.410156 C 10.003906 11.414062 9.980469 11.421875 9.957031 11.429688 C 9.9375 11.4375 9.917969 11.445312 9.898438 11.453125 C 9.847656 11.464844 9.847656 11.464844 9.785156 11.464844 C 9.789062 11.476562 9.792969 11.488281 9.796875 11.5 C 9.839844 11.621094 9.878906 11.738281 9.921875 11.859375 C 9.9375 11.902344 9.953125 11.945312 9.96875 11.992188 C 10.011719 12.117188 10.054688 12.246094 10.101562 12.371094 C 10.121094 12.429688 10.140625 12.488281 10.160156 12.542969 C 10.171875 12.578125 10.183594 12.609375 10.195312 12.644531 C 10.199219 12.660156 10.207031 12.675781 10.210938 12.691406 C 10.230469 12.75 10.246094 12.800781 10.246094 12.863281 C 10.667969 12.730469 11.089844 12.597656 11.503906 12.457031 C 11.785156 12.363281 12.070312 12.269531 12.351562 12.183594 C 12.367188 12.179688 12.382812 12.171875 12.398438 12.167969 C 12.429688 12.160156 12.457031 12.148438 12.488281 12.140625 C 12.578125 12.113281 12.664062 12.078125 12.75 12.042969 C 12.792969 12.027344 12.835938 12.015625 12.878906 12.003906 C 12.957031 11.980469 13.03125 11.957031 13.109375 11.929688 C 13.132812 11.921875 13.132812 11.921875 13.152344 11.914062 C 13.191406 11.902344 13.234375 11.886719 13.273438 11.875 C 13.371094 11.847656 13.371094 11.847656 13.425781 11.875 C 13.449219 11.929688 13.46875 11.976562 13.484375 12.03125 C 13.492188 12.046875 13.496094 12.0625 13.5 12.078125 C 13.519531 12.128906 13.535156 12.179688 13.550781 12.230469 C 13.5625 12.265625 13.574219 12.296875 13.585938 12.332031 C 13.632812 12.472656 13.679688 12.617188 13.722656 12.761719 C 13.75 12.855469 13.785156 12.945312 13.824219 13.035156 C 13.867188 13.148438 13.90625 13.261719 13.945312 13.375 C 13.953125 13.402344 13.964844 13.425781 13.972656 13.453125 C 13.980469 13.476562 13.988281 13.5 13.996094 13.523438 C 14.003906 13.546875 14.011719 13.566406 14.019531 13.589844 C 14.035156 13.644531 14.035156 13.644531 14.035156 13.707031 C 13.660156 13.828125 13.660156 13.828125 13.488281 13.878906 C 13.445312 13.890625 13.40625 13.90625 13.363281 13.921875 C 13.277344 13.953125 13.191406 13.976562 13.101562 14 C 13.019531 14.019531 12.9375 14.046875 12.855469 14.074219 C 12.804688 14.09375 12.75 14.109375 12.699219 14.125 C 12.660156 14.140625 12.621094 14.152344 12.582031 14.164062 C 12.554688 14.171875 12.527344 14.183594 12.503906 14.191406 C 12.378906 14.230469 12.253906 14.273438 12.128906 14.3125 C 12.027344 14.347656 11.925781 14.378906 11.820312 14.414062 C 11.742188 14.4375 11.664062 14.464844 11.585938 14.492188 C 11.511719 14.515625 11.433594 14.539062 11.359375 14.566406 C 11.332031 14.574219 11.300781 14.582031 11.273438 14.59375 C 11.230469 14.605469 11.191406 14.621094 11.152344 14.632812 C 11.128906 14.640625 11.105469 14.648438 11.082031 14.65625 C 11.027344 14.671875 11.027344 14.671875 10.964844 14.671875 C 10.964844 14.683594 10.964844 14.699219 10.964844 14.710938 C 10.941406 14.710938 10.921875 14.710938 10.898438 14.710938 C 10.988281 15.03125 10.988281 15.03125 11.097656 15.34375 C 11.109375 15.390625 11.109375 15.390625 11.109375 15.472656 C 10.957031 15.523438 10.804688 15.574219 10.652344 15.625 C 10.613281 15.640625 10.570312 15.652344 10.53125 15.667969 C 10.507812 15.671875 10.488281 15.679688 10.464844 15.6875 C 10.320312 15.734375 10.175781 15.785156 10.027344 15.832031 C 9.90625 15.875 9.78125 15.917969 9.65625 15.957031 C 9.578125 15.984375 9.5 16.011719 9.421875 16.035156 C 9.347656 16.0625 9.273438 16.085938 9.199219 16.113281 C 9.171875 16.121094 9.144531 16.128906 9.117188 16.140625 C 9.078125 16.152344 9.042969 16.164062 9.003906 16.175781 C 8.980469 16.183594 8.960938 16.191406 8.9375 16.199219 C 8.875 16.214844 8.835938 16.207031 8.773438 16.191406 C 8.40625 15.117188 8.40625 15.117188 8.394531 15.074219 C 8.378906 15.039062 8.367188 15 8.355469 14.964844 C 8.339844 14.925781 8.328125 14.882812 8.316406 14.84375 C 8.273438 14.726562 8.234375 14.609375 8.191406 14.492188 C 8.042969 14.058594 7.890625 13.625 7.742188 13.1875 C 7.734375 13.164062 7.734375 13.164062 7.726562 13.140625 C 7.671875 12.988281 7.621094 12.835938 7.570312 12.679688 C 7.542969 12.609375 7.519531 12.539062 7.496094 12.464844 C 7.492188 12.453125 7.488281 12.4375 7.480469 12.425781 C 7.410156 12.210938 7.332031 11.996094 7.257812 11.78125 C 7.214844 11.664062 7.175781 11.542969 7.136719 11.425781 C 7.105469 11.324219 7.070312 11.226562 7.027344 11.125 C 6.996094 11.042969 6.96875 10.960938 6.945312 10.875 C 6.925781 10.8125 6.902344 10.753906 6.878906 10.691406 C 6.839844 10.589844 6.816406 10.484375 6.796875 10.375 C 6.996094 10.292969 7.199219 10.230469 7.402344 10.164062 C 7.441406 10.152344 7.480469 10.140625 7.519531 10.125 C 7.601562 10.097656 7.683594 10.074219 7.765625 10.046875 C 7.867188 10.011719 7.972656 9.980469 8.074219 9.945312 C 8.503906 9.804688 8.9375 9.664062 9.371094 9.53125 C 9.433594 9.511719 9.492188 9.492188 9.554688 9.472656 C 9.570312 9.46875 9.585938 9.460938 9.601562 9.457031 C 9.683594 9.429688 9.765625 9.402344 9.847656 9.371094 C 10.101562 9.277344 10.363281 9.195312 10.621094 9.109375 C 10.671875 9.09375 10.722656 9.074219 10.773438 9.058594 C 10.882812 9.023438 10.988281 8.988281 11.097656 8.953125 C 11.222656 8.914062 11.347656 8.871094 11.46875 8.832031 C 11.589844 8.792969 11.710938 8.753906 11.832031 8.714844 C 11.882812 8.699219 11.933594 8.679688 11.984375 8.664062 C 12.054688 8.640625 12.125 8.617188 12.195312 8.59375 C 12.21875 8.589844 12.238281 8.582031 12.261719 8.574219 C 12.289062 8.566406 12.289062 8.566406 12.316406 8.554688 C 12.335938 8.550781 12.351562 8.542969 12.367188 8.539062 C 12.414062 8.527344 12.414062 8.527344 12.5 8.527344 Z M 12.5 8.527344 "/>
<path style=" stroke:none;fill-rule:nonzero;fill:rgb(99.215686%,99.215686%,99.215686%);fill-opacity:1;" d="M 5.324219 10.210938 C 5.335938 10.246094 5.351562 10.277344 5.367188 10.308594 C 5.375 10.328125 5.382812 10.347656 5.390625 10.363281 C 5.40625 10.417969 5.40625 10.417969 5.40625 10.5 C 5.421875 10.5 5.4375 10.5 5.449219 10.5 C 5.453125 10.515625 5.453125 10.515625 5.457031 10.535156 C 5.460938 10.550781 5.464844 10.566406 5.46875 10.582031 C 5.46875 10.597656 5.472656 10.613281 5.476562 10.628906 C 5.492188 10.6875 5.515625 10.738281 5.539062 10.789062 C 5.566406 10.855469 5.585938 10.925781 5.605469 10.996094 C 5.640625 11.121094 5.683594 11.238281 5.738281 11.359375 C 5.765625 11.429688 5.792969 11.5 5.8125 11.574219 C 5.851562 11.691406 5.886719 11.804688 5.925781 11.921875 C 5.933594 11.933594 5.9375 11.949219 5.941406 11.964844 C 5.953125 11.992188 5.960938 12.023438 5.972656 12.050781 C 6.0625 12.316406 6.152344 12.582031 6.238281 12.847656 C 6.246094 12.863281 6.25 12.878906 6.257812 12.894531 C 6.261719 12.910156 6.265625 12.925781 6.273438 12.945312 C 6.335938 13.136719 6.402344 13.328125 6.476562 13.519531 C 6.523438 13.644531 6.5625 13.769531 6.597656 13.898438 C 6.621094 13.980469 6.65625 14.0625 6.6875 14.140625 C 6.753906 14.3125 6.8125 14.488281 6.871094 14.660156 C 6.882812 14.695312 6.894531 14.726562 6.902344 14.757812 C 6.921875 14.808594 6.9375 14.859375 6.953125 14.90625 C 7.011719 15.078125 7.070312 15.25 7.128906 15.417969 C 7.164062 15.519531 7.199219 15.621094 7.234375 15.722656 C 7.261719 15.808594 7.292969 15.894531 7.320312 15.980469 C 7.351562 16.066406 7.382812 16.152344 7.410156 16.238281 C 7.421875 16.269531 7.433594 16.304688 7.445312 16.335938 C 7.457031 16.378906 7.472656 16.425781 7.488281 16.46875 C 7.496094 16.492188 7.507812 16.519531 7.515625 16.542969 C 7.53125 16.601562 7.53125 16.601562 7.53125 16.644531 C 7.558594 16.636719 7.582031 16.628906 7.605469 16.617188 C 7.699219 16.589844 7.792969 16.558594 7.882812 16.527344 C 7.925781 16.511719 7.964844 16.5 8.003906 16.488281 C 8.097656 16.453125 8.195312 16.421875 8.289062 16.390625 C 8.355469 16.371094 8.425781 16.347656 8.492188 16.324219 C 8.507812 16.316406 8.519531 16.3125 8.535156 16.308594 C 8.574219 16.296875 8.613281 16.28125 8.648438 16.269531 C 8.714844 16.253906 8.738281 16.25 8.796875 16.273438 C 8.820312 16.308594 8.820312 16.308594 8.839844 16.355469 C 8.84375 16.371094 8.851562 16.386719 8.859375 16.40625 C 8.890625 16.492188 8.921875 16.578125 8.953125 16.667969 C 8.960938 16.6875 8.96875 16.707031 8.972656 16.726562 C 8.996094 16.792969 9.019531 16.859375 9.039062 16.925781 C 9.054688 16.96875 9.070312 17.015625 9.085938 17.0625 C 9.121094 17.15625 9.152344 17.253906 9.1875 17.351562 C 9.226562 17.472656 9.269531 17.59375 9.3125 17.71875 C 9.351562 17.835938 9.390625 17.953125 9.429688 18.070312 C 9.4375 18.09375 9.445312 18.113281 9.453125 18.136719 C 9.523438 18.339844 9.59375 18.542969 9.65625 18.746094 C 9.667969 18.769531 9.675781 18.796875 9.683594 18.824219 C 9.699219 18.882812 9.699219 18.882812 9.699219 18.945312 C 9.816406 18.910156 9.9375 18.875 10.054688 18.835938 C 10.09375 18.824219 10.132812 18.8125 10.171875 18.800781 C 10.425781 18.722656 10.679688 18.640625 10.933594 18.550781 C 11.347656 18.410156 11.761719 18.273438 12.175781 18.136719 C 12.273438 18.105469 12.367188 18.074219 12.460938 18.046875 C 12.640625 17.988281 12.820312 17.929688 13 17.871094 C 13.320312 17.765625 13.640625 17.660156 13.964844 17.558594 C 14.074219 17.519531 14.1875 17.484375 14.296875 17.449219 C 14.695312 17.320312 15.09375 17.1875 15.488281 17.054688 C 15.632812 17.007812 15.777344 16.957031 15.921875 16.910156 C 15.9375 16.90625 15.953125 16.902344 15.96875 16.894531 C 16.050781 16.871094 16.128906 16.84375 16.210938 16.816406 C 16.277344 16.796875 16.339844 16.773438 16.40625 16.753906 C 16.488281 16.726562 16.570312 16.699219 16.648438 16.671875 C 16.679688 16.664062 16.710938 16.652344 16.742188 16.644531 C 16.78125 16.628906 16.824219 16.617188 16.867188 16.601562 C 16.890625 16.59375 16.914062 16.585938 16.9375 16.578125 C 17 16.5625 17.046875 16.558594 17.105469 16.5625 C 17.113281 16.578125 17.117188 16.59375 17.121094 16.613281 C 17.167969 16.773438 17.21875 16.933594 17.277344 17.09375 C 17.28125 17.109375 17.289062 17.121094 17.292969 17.136719 C 17.296875 17.152344 17.300781 17.164062 17.308594 17.179688 C 17.320312 17.226562 17.316406 17.273438 17.316406 17.320312 C 17.304688 17.324219 17.292969 17.328125 17.28125 17.332031 C 16.546875 17.570312 16.546875 17.570312 15.8125 17.816406 C 15.570312 17.898438 15.328125 17.976562 15.085938 18.054688 C 14.878906 18.121094 14.671875 18.191406 14.464844 18.261719 C 14.429688 18.273438 14.394531 18.285156 14.359375 18.296875 C 14.34375 18.300781 14.328125 18.304688 14.3125 18.3125 C 14.070312 18.390625 13.828125 18.472656 13.585938 18.546875 C 13.128906 18.691406 12.671875 18.839844 12.21875 18.988281 C 12.117188 19.019531 12.015625 19.054688 11.917969 19.085938 C 11.660156 19.167969 11.40625 19.253906 11.152344 19.335938 C 10.875 19.425781 10.601562 19.515625 10.324219 19.605469 C 10.226562 19.636719 10.128906 19.667969 10.027344 19.703125 C 9.574219 19.851562 9.117188 19.996094 8.660156 20.140625 C 8.324219 20.25 7.992188 20.359375 7.65625 20.46875 C 7.585938 20.492188 7.511719 20.515625 7.441406 20.539062 C 7.417969 20.546875 7.398438 20.554688 7.375 20.5625 C 7.34375 20.570312 7.34375 20.570312 7.316406 20.582031 C 7.296875 20.585938 7.28125 20.589844 7.261719 20.597656 C 7.21875 20.609375 7.21875 20.609375 7.15625 20.609375 C 6.996094 20.164062 6.84375 19.71875 6.6875 19.269531 C 6.683594 19.25 6.675781 19.226562 6.667969 19.207031 C 6.609375 19.03125 6.550781 18.859375 6.492188 18.683594 C 6.4375 18.535156 6.386719 18.382812 6.335938 18.230469 C 6.328125 18.210938 6.320312 18.1875 6.3125 18.167969 C 6.203125 17.839844 6.089844 17.511719 5.972656 17.183594 C 5.871094 16.894531 5.769531 16.601562 5.671875 16.308594 C 5.648438 16.242188 5.625 16.175781 5.601562 16.109375 C 5.582031 16.042969 5.558594 15.980469 5.535156 15.914062 C 5.527344 15.890625 5.519531 15.867188 5.511719 15.84375 C 5.503906 15.820312 5.496094 15.796875 5.488281 15.777344 C 5.480469 15.757812 5.476562 15.738281 5.46875 15.71875 C 5.453125 15.671875 5.441406 15.628906 5.429688 15.582031 C 5.410156 15.492188 5.378906 15.40625 5.347656 15.316406 C 5.34375 15.300781 5.335938 15.28125 5.332031 15.265625 C 5.3125 15.207031 5.292969 15.152344 5.273438 15.09375 C 5.261719 15.054688 5.246094 15.015625 5.230469 14.972656 C 5.195312 14.863281 5.15625 14.753906 5.117188 14.640625 C 5.078125 14.527344 5.039062 14.410156 5 14.292969 C 4.933594 14.097656 4.867188 13.902344 4.800781 13.710938 C 4.722656 13.484375 4.648438 13.261719 4.570312 13.035156 C 4.488281 12.796875 4.40625 12.554688 4.324219 12.316406 C 4.300781 12.246094 4.277344 12.179688 4.253906 12.109375 C 4.21875 12 4.179688 11.890625 4.144531 11.785156 C 4.128906 11.746094 4.117188 11.703125 4.101562 11.664062 C 4.015625 11.40625 3.921875 11.148438 3.828125 10.894531 C 3.800781 10.8125 3.785156 10.75 3.789062 10.664062 C 3.9375 10.613281 4.085938 10.566406 4.234375 10.515625 C 4.285156 10.5 4.335938 10.484375 4.386719 10.46875 C 4.460938 10.441406 4.53125 10.417969 4.605469 10.394531 C 4.628906 10.386719 4.648438 10.378906 4.671875 10.371094 C 4.789062 10.335938 4.90625 10.304688 5.027344 10.28125 C 5.078125 10.273438 5.125 10.257812 5.175781 10.242188 C 5.230469 10.21875 5.261719 10.210938 5.324219 10.210938 Z M 5.324219 10.210938 "/>
<path style=" stroke:none;fill-rule:nonzero;fill:rgb(98.823529%,98.823529%,98.823529%);fill-opacity:1;" d="M 16.179688 13.871094 C 16.21875 13.972656 16.253906 14.070312 16.289062 14.171875 C 16.300781 14.207031 16.3125 14.242188 16.324219 14.277344 C 16.34375 14.324219 16.359375 14.375 16.378906 14.421875 C 16.382812 14.4375 16.390625 14.453125 16.394531 14.46875 C 16.421875 14.542969 16.433594 14.59375 16.433594 14.671875 C 16.421875 14.675781 16.40625 14.679688 16.394531 14.683594 C 15.484375 14.972656 14.578125 15.265625 13.671875 15.5625 C 13.539062 15.605469 13.402344 15.648438 13.269531 15.695312 C 13.117188 15.742188 12.96875 15.789062 12.820312 15.839844 C 12.757812 15.859375 12.695312 15.878906 12.636719 15.898438 C 12.5625 15.921875 12.488281 15.945312 12.417969 15.972656 C 12.390625 15.980469 12.363281 15.988281 12.335938 15.996094 C 12.1875 16.046875 12.042969 16.09375 11.898438 16.144531 C 11.859375 16.15625 11.859375 16.15625 11.820312 16.171875 C 11.773438 16.1875 11.726562 16.203125 11.679688 16.21875 C 11.65625 16.226562 11.636719 16.234375 11.613281 16.242188 C 11.585938 16.25 11.585938 16.25 11.558594 16.261719 C 11.511719 16.273438 11.511719 16.273438 11.425781 16.273438 C 11.359375 16.148438 11.328125 16.042969 11.320312 15.902344 C 11.308594 15.902344 11.292969 15.902344 11.277344 15.902344 C 11.273438 15.882812 11.265625 15.859375 11.261719 15.835938 C 11.253906 15.808594 11.246094 15.78125 11.238281 15.75 C 11.234375 15.738281 11.230469 15.722656 11.226562 15.707031 C 11.210938 15.636719 11.210938 15.636719 11.171875 15.574219 C 11.171875 15.535156 11.171875 15.492188 11.171875 15.453125 C 11.867188 15.21875 12.566406 14.988281 13.265625 14.769531 C 13.539062 14.683594 13.8125 14.59375 14.085938 14.5 C 14.4375 14.382812 14.792969 14.269531 15.148438 14.15625 C 15.289062 14.113281 15.433594 14.066406 15.574219 14.019531 C 15.613281 14.007812 15.652344 13.992188 15.691406 13.980469 C 15.707031 13.976562 15.726562 13.96875 15.746094 13.960938 C 16.039062 13.867188 16.039062 13.867188 16.179688 13.871094 Z M 16.179688 13.871094 "/>
<path style=" stroke:none;fill-rule:nonzero;fill:rgb(68.627451%,70.980392%,78.039216%);fill-opacity:1;" d="M 5.324219 10.152344 C 5.34375 10.15625 5.367188 10.164062 5.386719 10.171875 C 5.378906 10.210938 5.371094 10.253906 5.367188 10.292969 C 5.351562 10.265625 5.339844 10.242188 5.324219 10.210938 C 5.300781 10.21875 5.28125 10.226562 5.257812 10.234375 C 5.230469 10.246094 5.199219 10.253906 5.171875 10.265625 C 5.15625 10.269531 5.140625 10.273438 5.128906 10.28125 C 4.996094 10.324219 4.996094 10.324219 4.925781 10.292969 C 4.976562 10.277344 5.027344 10.261719 5.078125 10.242188 C 5.089844 10.238281 5.105469 10.234375 5.121094 10.226562 C 5.191406 10.203125 5.246094 10.191406 5.324219 10.191406 C 5.324219 10.179688 5.324219 10.164062 5.324219 10.152344 Z M 5.324219 10.152344 "/>
<path style=" stroke:none;fill-rule:nonzero;fill:rgb(77.254902%,77.647059%,82.352941%);fill-opacity:1;" d="M 11.320312 15.984375 C 11.339844 15.996094 11.339844 15.996094 11.363281 16.007812 C 11.371094 16.035156 11.378906 16.066406 11.386719 16.097656 C 11.40625 16.167969 11.40625 16.167969 11.460938 16.214844 C 11.507812 16.226562 11.507812 16.226562 11.574219 16.234375 C 11.511719 16.273438 11.511719 16.273438 11.425781 16.273438 C 11.332031 16.082031 11.332031 16.082031 11.320312 15.984375 Z M 11.320312 15.984375 "/>
<path style=" stroke:none;fill-rule:nonzero;fill:rgb(71.372549%,76.862745%,83.529412%);fill-opacity:1;" d="M 19.148438 12.800781 C 19.195312 12.808594 19.246094 12.816406 19.296875 12.820312 C 19.230469 12.863281 19.175781 12.882812 19.105469 12.90625 C 19.082031 12.914062 19.058594 12.921875 19.035156 12.929688 C 18.980469 12.945312 18.980469 12.945312 18.9375 12.945312 C 18.9375 12.933594 18.9375 12.917969 18.9375 12.902344 C 18.953125 12.898438 18.964844 12.894531 18.980469 12.890625 C 18.996094 12.886719 19.011719 12.882812 19.03125 12.875 C 19.058594 12.867188 19.058594 12.867188 19.082031 12.859375 C 19.132812 12.847656 19.132812 12.847656 19.148438 12.800781 Z M 19.148438 12.800781 "/>
<path style=" stroke:none;fill-rule:nonzero;fill:rgb(67.843137%,74.117647%,81.568627%);fill-opacity:1;" d="M 11.320312 1.789062 C 11.285156 1.804688 11.253906 1.820312 11.21875 1.835938 C 11.199219 1.847656 11.183594 1.855469 11.164062 1.867188 C 11.109375 1.890625 11.109375 1.890625 11.046875 1.910156 C 11 1.890625 11 1.890625 10.964844 1.871094 C 11.015625 1.851562 11.066406 1.835938 11.117188 1.816406 C 11.140625 1.808594 11.140625 1.808594 11.164062 1.800781 C 11.273438 1.765625 11.273438 1.765625 11.320312 1.789062 Z M 11.320312 1.789062 "/>
<path style=" stroke:none;fill-rule:nonzero;fill:rgb(20.392157%,20.392157%,37.254902%);fill-opacity:1;" d="M 0.652344 9.101562 C 0.667969 9.109375 0.679688 9.117188 0.695312 9.125 C 0.671875 9.152344 0.671875 9.152344 0.652344 9.183594 C 0.652344 9.238281 0.652344 9.238281 0.660156 9.292969 C 0.664062 9.308594 0.664062 9.328125 0.667969 9.347656 C 0.667969 9.363281 0.671875 9.375 0.671875 9.390625 C 0.632812 9.332031 0.621094 9.300781 0.609375 9.234375 C 0.605469 9.214844 0.601562 9.199219 0.597656 9.183594 C 0.59375 9.167969 0.59375 9.15625 0.589844 9.144531 C 0.609375 9.128906 0.628906 9.117188 0.652344 9.101562 Z M 0.652344 9.101562 "/>
<path style=" stroke:none;fill-rule:nonzero;fill:rgb(59.215686%,67.058824%,75.686275%);fill-opacity:1;" d="M 8.121094 14.300781 C 8.175781 14.378906 8.1875 14.4375 8.207031 14.527344 C 8.1875 14.535156 8.164062 14.539062 8.144531 14.546875 C 8.136719 14.464844 8.128906 14.386719 8.121094 14.300781 Z M 8.121094 14.300781 "/>
<path style=" stroke:none;fill-rule:nonzero;fill:rgb(61.960784%,68.235294%,76.078431%);fill-opacity:1;" d="M 12.710938 12.082031 C 12.605469 12.113281 12.605469 12.113281 12.5 12.144531 C 12.507812 12.125 12.511719 12.101562 12.519531 12.082031 C 12.597656 12.0625 12.628906 12.0625 12.710938 12.082031 Z M 12.710938 12.082031 "/>
</g>
</svg>
